# xmcd
#
# Track frame offsets:
#	150
#	18970
#	38024
#	56434
#	72779
#	91784
#	116501
#	143787
#	161784
#	182119
#
# Disc length: 2584 seconds
#
# Revision: 0
# Processed by: cddbd v1.5.2PL0 Copyright (c) Steve Scherf et al.
# Submitted via: EasyCDDAExtractor 15.2.5.1
#
DISCID=7b0a160a
DTITLE=kings go forth - outsiders are back
DYEAR=1900
DGENRE=
TTITLE0=one day
TTITLE1=i don't love you no more
TTITLE2=you're the one
TTITLE3=fight with love
TTITLE4=high on your love
TTITLE5=paradise lost
TTITLE6=don't take my shadow
TTITLE7=now we're gone
TTITLE8=1000 songs
TTITLE9=get a feeling
EXTD=
EXTT0=
EXTT1=
EXTT2=
EXTT3=
EXTT4=
EXTT5=
EXTT6=
EXTT7=
EXTT8=
EXTT9=
PLAYORDER=
